# xmcd
#
# Track frame offsets: 
#        150
#        22023
#        40422
#        56289
#        72395
#        96940
#        131501
#        144571
#        161333
#        174385
#        203412
#
# Disc length: 2987 seconds
#
# Revision: 0
# Processed by: cddbd v1.5.2PL0 Copyright (c) Steve Scherf et al.
# Submitted via: ExactAudioCopy v1.0b1
#
DISCID=920ba90b
DTITLE=Watermelon Slim and Super Chikan - Okiesippi Blues
DYEAR=2011
DGENRE=Blues
TTITLE0=Trucking Blues
TTITLE1=I Don't Wear No Sunglasses
TTITLE2=The Trip
TTITLE3=I'm a Little Fish
TTITLE4=Northwest Regional Medical Center Blues
TTITLE5=Diddley-Bo Jam
TTITLE6=Thou Art With Me
TTITLE7=You Might Know
TTITLE8=Keep Your Lamp Trimmed and Burning
TTITLE9=Within You Without You Dinde
TTITLE10=Moonshine
EXTD=
EXTT0=
EXTT1=
EXTT2=
EXTT3=
EXTT4=
EXTT5=
EXTT6=
EXTT7=
EXTT8=
EXTT9=
EXTT10=
PLAYORDER=
